<svg width="690" height="125" viewBox="0 0 690 125" fill="none" xmlns="http://www.w3.org/2000/svg">
<path d="M445.518 4.76758H438.462V40.2996C438.455 41.9869 438.582 43.6721 438.84 45.3396H438.586C435.186 38.0316 426.112 30.9756 415.276 30.9756C398.518 30.9756 386.17 44.8356 386.17 63.9876C386.17 82.7616 398.518 96.9996 415.276 96.9996C426.112 96.9996 435.31 89.6916 438.838 82.1316H439.09C438.827 83.7561 438.7 85.3999 438.712 87.0456V95.4876H445.512L445.518 4.76758ZM415.656 37.4016C426.492 37.4016 438.586 45.4656 438.586 63.9876C438.586 82.5096 426.492 90.5736 415.656 90.5736C402.048 90.5736 393.228 78.9816 393.228 63.9876C393.228 48.6156 402.048 37.4016 415.656 37.4016ZM469.206 42.6936C472.482 40.6776 480.672 37.4016 489.996 37.4016C501.084 37.4016 508.396 41.9376 508.396 55.1676V59.9556C482.436 56.0496 465.3 63.8616 465.3 79.7376C465.3 89.9436 473.112 96.9996 484.7 96.9996C500.954 96.9996 508.766 81.8796 508.766 81.3756H509.018C508.677 83.2026 508.55 85.0632 508.64 86.9196V95.4876H515.318V54.9156C515.318 39.1656 507.38 30.9756 490.618 30.9756C483.206 30.9181 475.88 32.5559 469.198 35.7636L469.206 42.6936ZM485.46 90.6996C477.522 90.6996 472.486 86.0376 472.486 79.3596C472.486 68.0196 485.842 61.9716 508.396 65.6256C508.392 77.5956 498.686 90.6996 485.46 90.6996ZM532.08 32.4876V38.4096H543.42V78.0996C543.42 92.4636 551.484 96.9996 559.8 96.9996C564.431 97.0861 569.014 96.0485 573.156 93.9756V87.6756C569.28 89.6089 565.017 90.6426 560.686 90.6996C554.638 90.6996 550.354 87.0456 550.354 76.7136V38.4136H570.886V32.4876H550.35V13.5876H543.42V32.4876H532.08ZM588.654 42.6936C591.93 40.6776 600.12 37.4016 609.444 37.4016C620.532 37.4016 627.844 41.9376 627.844 55.1676V59.9556C601.888 56.0496 584.752 63.8616 584.752 79.7376C584.752 89.9436 592.564 96.9996 604.152 96.9996C620.406 96.9996 628.218 81.8796 628.218 81.3756H628.47C628.129 83.2026 628.002 85.0632 628.092 86.9196V95.4876H634.77V54.9156C634.77 39.1656 626.832 30.9756 610.07 30.9756C602.658 30.9181 595.332 32.5559 588.65 35.7636L588.654 42.6936ZM604.908 90.6996C596.97 90.6996 591.93 86.0376 591.93 79.3596C591.93 68.0196 605.286 61.9716 627.84 65.6256C627.84 77.5956 618.138 90.6996 604.908 90.6996Z" fill="#3F3354"/>
<path d="M55.2295 31.7811V95.6811H70.8215V31.7811H55.2295ZM90.1205 31.7811V95.6811H105.712V63.9811C105.712 52.7341 113.253 44.2981 123.86 44.2981C132.551 44.2981 134.34 50.9441 134.34 58.3571V95.6771H149.929V55.6771C149.929 39.1901 142.9 30.1151 127.819 30.1151C115.677 30.1151 107.242 38.6781 104.686 44.5571H104.43C104.717 43.0389 104.888 41.5011 104.941 39.9571L104.558 31.7771L90.1205 31.7811ZM160.541 31.7811V44.1811H169.36V95.6861H184.952V44.1791H200.289V31.7811H184.313V26.9251C184.313 19.3841 189.042 15.2941 196.327 15.2941C198.523 15.2907 200.711 15.5482 202.845 16.0611V2.76909C200.153 2.23096 197.411 1.97391 194.665 2.00209C178.945 2.00209 169.871 11.2021 169.871 25.3911V31.7811H160.541ZM210.257 95.6811H225.849V68.2071C225.849 56.1931 233.389 45.0741 244.381 45.0741C245.673 45.1229 246.957 45.294 248.215 45.5851V30.5031C246.913 30.2269 245.584 30.0984 244.253 30.1201C235.434 30.1201 228.789 35.9991 224.827 43.7961C224.699 43.2851 224.827 41.4961 224.827 39.3231C224.827 36.8951 224.699 34.3381 224.571 31.7821H210.257V95.6811ZM257.289 48.7751C261.379 46.2191 269.431 43.4071 277.866 43.4071C287.196 43.4071 293.075 46.6071 293.075 55.9321V58.3601C268.281 54.9091 252.816 62.5781 252.816 78.2981C252.816 90.5681 261.762 97.3411 273.137 97.3411C286.173 97.3411 292.947 86.9891 294.097 84.1771H294.353C294.092 85.7819 294.006 87.4106 294.097 89.0341L294.353 95.6801H308.539V55.1701C308.539 39.1941 299.209 30.1201 280.294 30.1201C269.431 30.1201 260.868 32.8041 257.294 34.7201L257.289 48.7751ZM276.589 85.2001C271.221 85.2001 267.77 81.8771 267.77 77.0201C267.77 69.7351 275.183 64.7501 292.692 67.5621C292.692 76.5141 285.79 85.2051 276.588 85.2051L276.589 85.2001Z" fill="#3F3354"/>
<path d="M349.913 96.1438C346.076 96.1426 342.326 95.0039 339.137 92.8718C335.947 90.7396 333.462 87.7097 331.994 84.165C330.527 80.6204 330.143 76.7202 330.892 72.9575C331.64 69.1949 333.488 65.7387 336.201 63.0259C338.913 60.3131 342.37 58.4656 346.132 57.7168C349.895 56.9681 353.795 57.3518 357.34 58.8193C360.884 60.2869 363.914 62.7726 366.047 65.962C368.179 69.1513 369.317 72.9013 369.319 76.7378C369.314 81.8831 367.268 86.8163 363.629 90.4546C359.991 94.0929 355.058 96.139 349.913 96.1438ZM349.913 67.9788C348.179 67.978 346.484 68.4913 345.043 69.4539C343.601 70.4165 342.477 71.7851 341.813 73.3865C341.15 74.9878 340.976 76.7501 341.314 78.4504C341.652 80.1506 342.486 81.7124 343.712 82.9381C344.938 84.1639 346.5 84.9986 348.2 85.3366C349.9 85.6746 351.662 85.5007 353.264 84.8369C354.865 84.1732 356.234 83.0494 357.196 81.6077C358.159 80.166 358.672 78.4713 358.672 76.7378C358.669 74.4155 357.745 72.1892 356.103 70.5471C354.461 68.9049 352.235 67.9819 349.913 67.9788Z" fill="#ffac48"/>
</svg>
